<svg width="30" height="30" xmlns="http://www.w3.org/2000/svg"><path d="M29.617 18.605l-2.692-1.488a11.161 11.161 0 0 0 0-4.246l2.692-1.488c.31-.17.448-.52.347-.847a14.926 14.926 0 0 0-3.456-5.721.785.785 0 0 0-.935-.14l-2.691 1.488A12.063 12.063 0 0 0 19.04 4.04V1.07a.733.733 0 0 0-.594-.707 16.575 16.575 0 0 0-6.9 0 .733.733 0 0 0-.593.708v2.975A12.444 12.444 0 0 0 7.11 6.17L4.426 4.681a.775.775 0 0 0-.935.14 14.836 14.836 0 0 0-3.456 5.721.71.71 0 0 0 .348.847l2.691 1.488a11.161 11.161 0 0 0 0 4.246L.383 18.611a.718.718 0 0 0-.348.847 14.926 14.926 0 0 0 3.456 5.721c.24.248.632.309.935.14l2.692-1.488a12.063 12.063 0 0 0 3.841 2.123v2.975c0 .34.247.635.594.708 2.319.496 4.695.472 6.9 0a.733.733 0 0 0 .594-.708v-2.975a12.444 12.444 0 0 0 3.841-2.123l2.692 1.488c.31.169.695.114.935-.14a14.836 14.836 0 0 0 3.456-5.721.733.733 0 0 0-.354-.853zm-14.62 1.228c-2.787 0-5.055-2.172-5.055-4.839 0-2.667 2.268-4.839 5.055-4.839 2.786 0 5.054 2.172 5.054 4.839 0 2.667-2.268 4.839-5.054 4.839z" fill-rule="nonzero"/></svg>
